<svg 
 xmlns="http://www.w3.org/2000/svg"
 xmlns:xlink="http://www.w3.org/1999/xlink"
 width="28px" height="28px">
<path fill-rule="evenodd"  fill="rgb(59, 89, 152)"
 d="M-0.000,-0.000 C-0.000,-0.000 28.000,-0.000 28.000,-0.000 C28.000,-0.000 28.000,28.000 28.000,28.000 C28.000,28.000 -0.000,28.000 -0.000,28.000 C-0.000,28.000 -0.000,-0.000 -0.000,-0.000 Z"/>
<path fill-rule="evenodd"  fill="rgb(255, 255, 255)"
 d="M16.533,8.255 C16.845,8.255 17.955,8.255 17.955,8.255 C17.955,8.255 17.955,5.017 17.955,5.017 C17.955,5.017 15.309,5.006 15.309,5.006 C12.370,5.006 11.601,7.306 11.601,8.779 C11.601,8.779 11.601,10.733 11.601,10.733 C11.601,10.733 10.003,10.733 10.003,10.733 C10.003,10.733 10.003,14.014 10.003,14.014 C10.003,14.014 11.601,14.014 11.601,14.014 C11.601,18.093 11.601,23.010 11.601,23.010 C11.601,23.010 15.576,23.010 15.576,23.010 C15.576,23.010 15.576,18.046 15.576,14.014 C15.576,14.014 17.554,14.014 17.554,14.014 C17.554,14.014 17.999,10.733 17.999,10.733 C17.999,10.733 15.576,10.733 15.576,10.733 C15.576,10.733 15.576,9.376 15.576,9.376 C15.576,8.675 16.220,8.255 16.533,8.255 Z"/>
</svg>